<?xml version="1.0" standalone="no"?>
<!DOCTYPE svg PUBLIC "-//W3C//DTD SVG 20010904//EN"
 "http://www.w3.org/TR/2001/REC-SVG-20010904/DTD/svg10.dtd">
<svg version="1.0" xmlns="http://www.w3.org/2000/svg"
 width="256.000000pt" height="256.000000pt" viewBox="0 0 256.000000 256.000000"
 preserveAspectRatio="xMidYMid meet">

<g transform="translate(0.000000,256.000000) scale(0.100000,-0.100000)"
fill="#000000" stroke="none">
<path d="M1065 2493 c-159 -28 -341 -103 -490 -201 -94 -62 -238 -208 -303
-307 -65 -97 -132 -236 -160 -330 -30 -98 -62 -293 -62 -380 0 -162 71 -419
161 -582 188 -340 561 -582 935 -607 l79 -5 -80 13 c-320 55 -480 134 -697
344 -215 209 -309 386 -359 680 -16 95 -20 149 -15 213 12 176 63 376 131 512
63 125 242 328 380 431 116 88 310 169 474 200 129 25 339 21 481 -8 228 -46
453 -175 624 -357 202 -215 312 -472 323 -760 14 -350 -91 -634 -326 -883
-161 -170 -407 -307 -641 -357 -53 -11 -72 -18 -52 -18 45 -1 217 44 302 79
263 108 510 343 624 593 82 181 116 336 116 537 0 160 -11 228 -61 372 -135
395 -429 678 -823 793 -158 45 -399 58 -561 28z"/>
<path d="M1694 1944 c-4 -10 -45 -109 -92 -219 -47 -110 -114 -267 -148 -350
l-63 -150 -77 4 c-72 3 -77 2 -69 -15 15 -38 26 -237 14 -266 -16 -38 -110
-94 -201 -118 -22 -6 -38 -14 -35 -17 10 -10 111 19 155 44 24 14 49 22 57 19
7 -2 18 1 23 7 14 17 165 367 223 516 48 124 79 177 79 136 0 -36 59 -123 102
-153 24 -16 81 -46 128 -66 156 -69 237 -124 265 -182 23 -49 22 -142 -4 -192
-85 -167 -319 -176 -475 -17 -59 60 -68 57 -37 -12 15 -32 31 -48 70 -68 108
-54 223 -68 321 -39 132 39 200 127 200 260 0 146 -71 216 -330 325 -60 25
-125 66 -152 95 -9 11 -22 41 -28 67 -34 154 101 253 297 217 56 -11 74 -19
104 -49 20 -20 38 -43 41 -51 11 -32 19 0 9 37 -8 31 -20 45 -53 64 -39 22
-54 24 -163 24 -106 0 -125 -3 -163 -23 -24 -13 -46 -21 -49 -18 -3 3 5 32 19
63 33 75 51 133 44 140 -3 3 -9 -3 -12 -13z"/>
<path d="M776 1788 c-141 -27 -282 -133 -343 -259 -140 -288 3 -623 305 -712
68 -21 214 -33 237 -20 13 8 -9 12 -82 15 -85 4 -110 10 -167 36 -94 44 -165
115 -216 216 -40 79 -43 89 -47 192 -16 323 162 524 462 524 141 0 248 -41
333 -127 39 -40 52 -49 52 -35 0 59 -105 134 -235 167 -66 17 -221 18 -299 3z"/>
<path d="M1192 761 c-27 -56 -46 -104 -41 -106 4 -3 13 4 19 15 24 44 80 183
76 187 -2 2 -26 -41 -54 -96z"/>
<path d="M1248 73 c6 -2 18 -2 25 0 6 3 1 5 -13 5 -14 0 -19 -2 -12 -5z"/>
</g>
</svg>
